<svg width="24" height="24" viewBox="0 0 24 24" fill="none" xmlns="http://www.w3.org/2000/svg">
<g id="BagSimple">
<path id="Vector" d="M20.25 6H16.5C16.5 4.80653 16.0259 3.66193 15.182 2.81802C14.3381 1.97411 13.1935 1.5 12 1.5C10.8065 1.5 9.66193 1.97411 8.81802 2.81802C7.97411 3.66193 7.5 4.80653 7.5 6H3.75C3.35218 6 2.97064 6.15804 2.68934 6.43934C2.40804 6.72064 2.25 7.10218 2.25 7.5V18.75C2.25 19.1478 2.40804 19.5294 2.68934 19.8107C2.97064 20.092 3.35218 20.25 3.75 20.25H20.25C20.6478 20.25 21.0294 20.092 21.3107 19.8107C21.592 19.5294 21.75 19.1478 21.75 18.75V7.5C21.75 7.10218 21.592 6.72064 21.3107 6.43934C21.0294 6.15804 20.6478 6 20.25 6ZM12 3C12.7956 3 13.5587 3.31607 14.1213 3.87868C14.6839 4.44129 15 5.20435 15 6H9C9 5.20435 9.31607 4.44129 9.87868 3.87868C10.4413 3.31607 11.2044 3 12 3ZM20.25 18.75H3.75V7.5H20.25V18.75Z" fill="#383F45"/>
<path id="Vector_2" d="M15.1036 13.8536C15.1973 13.7598 15.25 13.6326 15.25 13.5C15.25 13.3674 15.1973 13.2402 15.1036 13.1464C15.0098 13.0527 14.8826 13 14.75 13H12.5V10.75C12.5 10.6174 12.4473 10.4902 12.3536 10.3964C12.2598 10.3027 12.1326 10.25 12 10.25C11.8674 10.25 11.7402 10.3027 11.6464 10.3964C11.5527 10.4902 11.5 10.6174 11.5 10.75V13H9.25C9.11739 13 8.99021 13.0527 8.89645 13.1464C8.80268 13.2402 8.75 13.3674 8.75 13.5C8.75 13.6326 8.80268 13.7598 8.89645 13.8536C8.99022 13.9473 9.11739 14 9.25 14H11.5V16.25C11.5 16.3826 11.5527 16.5098 11.6464 16.6036C11.7402 16.6973 11.8674 16.75 12 16.75C12.1326 16.75 12.2598 16.6973 12.3536 16.6036C12.4473 16.5098 12.5 16.3826 12.5 16.25V14H14.75C14.8826 14 15.0098 13.9473 15.1036 13.8536Z" fill="#383F45" stroke="#383F45" stroke-width="0.5"/>
</g>
</svg>
