<svg width="16" height="15" viewBox="0 0 16 15" fill="none" xmlns="http://www.w3.org/2000/svg">
<path id="Vector" d="M15.1131 13.7198C15.1828 13.7895 15.238 13.8722 15.2757 13.9632C15.3135 14.0543 15.3329 14.1519 15.3329 14.2504C15.3329 14.349 15.3135 14.4465 15.2757 14.5376C15.238 14.6286 15.1828 14.7114 15.1131 14.781C15.0434 14.8507 14.9607 14.906 14.8696 14.9437C14.7786 14.9814 14.681 15.0008 14.5824 15.0008C14.4839 15.0008 14.3863 14.9814 14.2953 14.9437C14.2042 14.906 14.1215 14.8507 14.0518 14.781L7.83245 8.56073L1.61307 14.781C1.47234 14.9218 1.28147 15.0008 1.08245 15.0008C0.883425 15.0008 0.692554 14.9218 0.551823 14.781C0.411093 14.6403 0.332031 14.4494 0.332031 14.2504C0.332031 14.0514 0.411093 13.8605 0.551823 13.7198L6.77214 7.50042L0.551823 1.28104C0.411093 1.14031 0.332031 0.94944 0.332031 0.750417C0.332031 0.551394 0.411093 0.360523 0.551823 0.219792C0.692554 0.0790615 0.883425 0 1.08245 0C1.28147 0 1.47234 0.0790615 1.61307 0.219792L7.83245 6.4401L14.0518 0.219792C14.1926 0.0790615 14.3834 -3.92322e-09 14.5824 0C14.7815 3.92322e-09 14.9723 0.0790615 15.1131 0.219792C15.2538 0.360523 15.3329 0.551394 15.3329 0.750417C15.3329 0.94944 15.2538 1.14031 15.1131 1.28104L8.89276 7.50042L15.1131 13.7198Z" fill="#383F45"/>
</svg>
