<svg width="19" height="19" viewBox="0 0 19 19" fill="none" xmlns="http://www.w3.org/2000/svg">
<path id="Vector" d="M17.51 12.8251C16.28 12.8251 15.09 12.6179 13.98 12.245C13.63 12.1206 13.24 12.2139 12.97 12.4936L11.4 14.5344C8.57 13.1359 5.92 10.4942 4.51 7.45886L6.46 5.73918C6.73 5.44911 6.81 5.04509 6.7 4.6825C6.33 3.5326 6.14 2.29981 6.14 1.02559C6.14 0.466179 5.69 0 5.15 0H1.69C1.15 0 0.5 0.248629 0.5 1.02559C0.5 10.6496 8.23 18.6471 17.51 18.6471C18.22 18.6471 18.5 17.9945 18.5 17.4247V13.8507C18.5 13.2913 18.05 12.8251 17.51 12.8251Z" fill="#B0B0B0"/>
</svg>
